<svg xmlns="http://www.w3.org/2000/svg" xmlns:xlink="http://www.w3.org/1999/xlink" x="0" y="0" width="662" height="283" style="
        width:662px;
        height:283px;
        background: transparent;
        fill: none;
">
        
        
        <svg xmlns="http://www.w3.org/2000/svg" class="role-diagram-draw-area"><g class="shapes-region" style="stroke: black; fill: none;"><g class="arrow-line"><path class="connection real" stroke-dasharray="" d="  M84.33,229.17 L219,229.17" style="stroke: rgb(0, 0, 0); stroke-width: 1px; fill: none; fill-opacity: 1;"/></g><g class="arrow-line"><path class="connection real" stroke-dasharray="" d="  M85.67,29.83 L383.67,29.83" style="stroke: rgb(0, 0, 0); stroke-width: 1px; fill: none; fill-opacity: 1;"/></g><g class="arrow-line"><path class="connection real" stroke-dasharray="" d="  M238.33,168.5 L373,168.5" style="stroke: rgb(0, 0, 0); stroke-width: 1px; fill: none; fill-opacity: 1;"/></g><g class="arrow-line"><path class="connection real" stroke-dasharray="6 6" d="  M86.67,60 L383.67,60" style="stroke: rgb(0, 0, 0); stroke-width: 1px; fill: none; fill-opacity: 1;"/></g><g class="arrow-line"><path class="connection real" stroke-dasharray="" d="  M151.67,63.5 L151.67,71.5 Q154.17,74 151.67,76.5 Q149.17,79 151.67,81.5 Q154.17,84 151.67,86.5 Q149.17,89 151.67,91.5 Q154.17,94 151.67,96.5 Q149.17,99 151.67,101.5 Q154.17,104 151.67,106.5 Q149.17,109 151.67,111.5 Q154.17,114 151.67,116.5 Q149.17,119 151.67,121.5 Q154.17,124 151.67,126.5 Q149.17,129 151.67,131.5 Q154.17,134 151.67,136.5 Q149.17,139 151.67,141.5 Q154.17,144 151.67,146.5 Q149.17,149 151.67,151.5 Q154.17,154 151.67,156.5 Q149.17,159 151.67,161.5 Q154.17,164 151.67,166.5 Q149.17,169 151.67,171.5 Q154.17,174 151.67,176.5 Q149.17,179 151.67,181.5 Q154.17,184 151.67,186.5 Q149.17,189 151.67,191.5 Q154.17,194 151.67,196.5 Q149.17,199 151.67,201.5 Q154.17,204 151.67,206.5 Q149.17,209 151.67,211.5 Q154.17,214 151.67,216.5 L151.67,218.17 L151.67,226.17" style="stroke: rgb(0, 0, 0); stroke-width: 1px; fill: none; fill-opacity: 1;"/><g stroke="none" fill="#000" transform="matrix(-1.8369701987210297e-16,-1,1,-1.8369701987210297e-16,151.66666666666666,229.16666666666669)" style="stroke: none; fill: rgb(0, 0, 0); stroke-width: 1px;"><path d=" M8.93,-4.29 L0,0 L8.93,4.29 Z"/></g><g stroke="none" fill="#000" transform="matrix(6.123233995736766e-17,1,-1,6.123233995736766e-17,151.66666666666666,60.5)" style="stroke: none; fill: rgb(0, 0, 0); stroke-width: 1px;"><path d=" M8.93,-4.29 L0,0 L8.93,4.29 Z"/></g></g><g class="arrow-line"><path class="connection real" stroke-dasharray="" d="  M303.67,64.83 L303.67,72.83 Q306.17,75.33 303.67,77.83 Q301.17,80.33 303.67,82.83 Q306.17,85.33 303.67,87.83 Q301.17,90.33 303.67,92.83 Q306.17,95.33 303.67,97.83 Q301.17,100.33 303.67,102.83 Q306.17,105.33 303.67,107.83 Q301.17,110.33 303.67,112.83 Q306.17,115.33 303.67,117.83 Q301.17,120.33 303.67,122.83 Q306.17,125.33 303.67,127.83 Q301.17,130.33 303.67,132.83 Q306.17,135.33 303.67,137.83 Q301.17,140.33 303.67,142.83 Q306.17,145.33 303.67,147.83 Q301.17,150.33 303.67,152.83 L303.67,157.5 L303.67,165.5" style="stroke: rgb(0, 0, 0); stroke-width: 1px; fill: none; fill-opacity: 1;"/><g stroke="none" fill="#000" transform="matrix(-1.8369701987210297e-16,-1,1,-1.8369701987210297e-16,303.66666666666663,168.5)" style="stroke: none; fill: rgb(0, 0, 0); stroke-width: 1px;"><path d=" M8.93,-4.29 L0,0 L8.93,4.29 Z"/></g><g stroke="none" fill="#000" transform="matrix(6.123233995736766e-17,1,-1,6.123233995736766e-17,303.66666666666663,61.83333333333334)" style="stroke: none; fill: rgb(0, 0, 0); stroke-width: 1px;"><path d=" M8.93,-4.29 L0,0 L8.93,4.29 Z"/></g></g><g class="composite-shape"><path class="real" d=" M401.33,119.67 L443.33,119.67 L443.33,109.67 L471.33,129.67 L443.33,149.67 L443.33,139.67 L401.33,139.67 Z" style="stroke-width: 1px; stroke: rgb(0, 0, 0); fill: none; fill-opacity: 1;"/></g><g/></g><g/><g/><g/></svg>
        <svg xmlns="http://www.w3.org/2000/svg" xmlns:xlink="http://www.w3.org/1999/xlink" width="660" height="281" style="width:660px;height:281px;font-family:Asana-Math, Asana;background:transparent;"><g><g><g><g transform="matrix(1,0,0,1,49.183349609375,35.01666259765625)"><path transform="matrix(0.017,0,0,-0.017,0,0)" d="M179.50274 -172L179.50274 713L120.50274 713L120.50274 -172Z" stroke="rgb(0,0,0)" stroke-opacity="1" stroke-width="8" fill="rgb(0,0,0)" fill-opacity="1"></path></g></g><g><g transform="matrix(1,0,0,1,55.13330078125,35.21665954589844)"><path transform="matrix(0.017,0,0,-0.017,0,0)" d="M394 -12C554 -12 671 181 673 325C674 363 660 458 607 458C592 458 562 441 548 434L548 423C593 392 607 338 606 284C605 189 542 17 425 17C366 17 362 73 363 119C365 185 380 261 403 324L393 324C372 317 350 309 328 304C323 217 294 16 174 16C111 16 100 81 100 129C102 278 168 388 306 443L306 463C152 428 40 300 25 137C9 -29 213 -49 295 47C316 3 344 -12 394 -12Z" stroke="rgb(0,0,0)" stroke-opacity="1" stroke-width="8" fill="rgb(0,0,0)" fill-opacity="1"></path></g></g><g><g><g><g><g transform="matrix(1,0,0,1,67.79998779296875,38.016668701171874)"><path transform="matrix(0.0119,0,0,-0.0119,0,0)" d="M34 388L41 368L73 389C110 412 113 414 120 414C130 414 138 404 138 391C138 384 134 361 130 347L64 107C56 76 51 49 51 30C51 6 62 -9 81 -9C107 -9 143 12 241 85L231 103L205 86C176 67 153 56 144 56C137 56 131 66 131 76C131 86 133 95 138 116L215 420C219 437 221 448 221 456C221 473 212 482 196 482C174 482 137 461 62 408ZM228 712C199 712 170 679 170 645C170 620 185 604 209 604C240 604 264 633 264 671C264 695 249 712 228 712Z" stroke="rgb(0,0,0)" stroke-opacity="1" stroke-width="8" fill="rgb(0,0,0)" fill-opacity="1"></path></g></g></g></g></g><g><g transform="matrix(1,0,0,1,72.11669921875,35.21665954589844)"><path transform="matrix(0.017,0,0,-0.017,0,0)" d="M329 271L103 713L53 713L257 271L53 -172L103 -172Z" stroke="rgb(0,0,0)" stroke-opacity="1" stroke-width="8" fill="rgb(0,0,0)" fill-opacity="1"></path></g></g></g></g><g><g><g><g transform="matrix(1,0,0,1,49.8499755859375,236.33331298828125)"><path transform="matrix(0.017,0,0,-0.017,0,0)" d="M179.50274 -172L179.50274 713L120.50274 713L120.50274 -172Z" stroke="rgb(0,0,0)" stroke-opacity="1" stroke-width="8" fill="rgb(0,0,0)" fill-opacity="1"></path></g></g><g><g transform="matrix(1,0,0,1,55.79998779296875,236.5333251953125)"><path transform="matrix(0.017,0,0,-0.017,0,0)" d="M394 -12C554 -12 671 181 673 325C674 363 660 458 607 458C592 458 562 441 548 434L548 423C593 392 607 338 606 284C605 189 542 17 425 17C366 17 362 73 363 119C365 185 380 261 403 324L393 324C372 317 350 309 328 304C323 217 294 16 174 16C111 16 100 81 100 129C102 278 168 388 306 443L306 463C152 428 40 300 25 137C9 -29 213 -49 295 47C316 3 344 -12 394 -12Z" stroke="rgb(0,0,0)" stroke-opacity="1" stroke-width="8" fill="rgb(0,0,0)" fill-opacity="1"></path></g></g><g><g><g><g><g transform="matrix(1,0,0,1,68.4666748046875,239.333349609375)"><path transform="matrix(0.0119,0,0,-0.0119,0,0)" d="M275 482C208 482 55 419 55 259C55 182 100 136 177 136C185 136 196 136 207 137L166 99C150 84 139 66 139 52C139 42 146 31 160 19C91 -4 -37 -48 -37 -159C-37 -230 33 -276 142 -276C271 -276 384 -204 384 -121C384 -85 363 -49 320 -14L260 35C226 62 213 81 213 100C213 114 228 128 240 146C338 170 409 253 409 342C409 357 406 376 405 380C422 378 430 378 439 378C456 378 466 379 489 382L498 427L495 433C467 426 447 424 393 424C393 425 369 482 275 482ZM176 1L253 -58C299 -94 318 -121 318 -154C318 -206 249 -248 166 -248C84 -248 27 -206 27 -145C27 -43 137 -11 176 1ZM250 448C308 448 337 412 337 341C337 238 289 168 219 168C158 168 126 209 126 288C126 383 177 448 250 448Z" stroke="rgb(0,0,0)" stroke-opacity="1" stroke-width="8" fill="rgb(0,0,0)" fill-opacity="1"></path></g></g></g></g></g><g><g transform="matrix(1,0,0,1,75.41668701171875,236.5333251953125)"><path transform="matrix(0.017,0,0,-0.017,0,0)" d="M329 271L103 713L53 713L257 271L53 -172L103 -172Z" stroke="rgb(0,0,0)" stroke-opacity="1" stroke-width="8" fill="rgb(0,0,0)" fill-opacity="1"></path></g></g></g></g><g><g><g><g transform="matrix(1,0,0,1,205.8499755859375,173.683349609375)"><path transform="matrix(0.017,0,0,-0.017,0,0)" d="M179.50274 -172L179.50274 713L120.50274 713L120.50274 -172Z" stroke="rgb(0,0,0)" stroke-opacity="1" stroke-width="8" fill="rgb(0,0,0)" fill-opacity="1"></path></g></g><g><g transform="matrix(1,0,0,1,211.79998779296875,173.88333129882812)"><path transform="matrix(0.017,0,0,-0.017,0,0)" d="M394 -12C554 -12 671 181 673 325C674 363 660 458 607 458C592 458 562 441 548 434L548 423C593 392 607 338 606 284C605 189 542 17 425 17C366 17 362 73 363 119C365 185 380 261 403 324L393 324C372 317 350 309 328 304C323 217 294 16 174 16C111 16 100 81 100 129C102 278 168 388 306 443L306 463C152 428 40 300 25 137C9 -29 213 -49 295 47C316 3 344 -12 394 -12Z" stroke="rgb(0,0,0)" stroke-opacity="1" stroke-width="8" fill="rgb(0,0,0)" fill-opacity="1"></path></g></g><g><g><g><g><g transform="matrix(1,0,0,1,224.4666748046875,176.6833251953125)"><path transform="matrix(0.0119,0,0,-0.0119,0,0)" d="M328 111L304 94C251 56 203 36 167 36C120 36 91 73 91 133C91 158 94 185 99 214C116 218 225 248 250 259C335 296 374 342 374 404C374 451 340 482 290 482C222 496 112 423 75 349C45 299 15 180 15 113C15 35 59 -11 131 -11C188 -11 244 17 336 92ZM113 274C130 343 150 386 179 412C197 428 228 440 252 440C281 440 300 420 300 388C300 344 265 297 213 272C185 258 149 247 104 237Z" stroke="rgb(0,0,0)" stroke-opacity="1" stroke-width="8" fill="rgb(0,0,0)" fill-opacity="1"></path></g></g></g></g></g><g><g transform="matrix(1,0,0,1,230.0999755859375,173.88333129882812)"><path transform="matrix(0.017,0,0,-0.017,0,0)" d="M329 271L103 713L53 713L257 271L53 -172L103 -172Z" stroke="rgb(0,0,0)" stroke-opacity="1" stroke-width="8" fill="rgb(0,0,0)" fill-opacity="1"></path></g></g></g></g><g><g><g><g transform="matrix(1,0,0,1,118.33331298828125,146.5333251953125)"><path transform="matrix(0.017,0,0,-0.017,0,0)" d="M394 -12C554 -12 671 181 673 325C674 363 660 458 607 458C592 458 562 441 548 434L548 423C593 392 607 338 606 284C605 189 542 17 425 17C366 17 362 73 363 119C365 185 380 261 403 324L393 324C372 317 350 309 328 304C323 217 294 16 174 16C111 16 100 81 100 129C102 278 168 388 306 443L306 463C152 428 40 300 25 137C9 -29 213 -49 295 47C316 3 344 -12 394 -12Z" stroke="rgb(0,0,0)" stroke-opacity="1" stroke-width="8" fill="rgb(0,0,0)" fill-opacity="1"></path></g></g><g><g><g><g><g transform="matrix(1,0,0,1,131,149.333349609375)"><path transform="matrix(0.0119,0,0,-0.0119,0,0)" d="M418 -3L418 27L366 30C311 33 301 44 301 96L301 700L60 598L67 548L217 614L217 96C217 44 206 33 152 30L96 27L96 -3C250 0 250 0 261 0C292 0 402 -3 418 -3Z" stroke="rgb(0,0,0)" stroke-opacity="1" stroke-width="8" fill="rgb(0,0,0)" fill-opacity="1"></path></g></g></g></g></g></g></g><g><g><g><g transform="matrix(1,0,0,1,270.3499755859375,112.5333251953125)"><path transform="matrix(0.017,0,0,-0.017,0,0)" d="M394 -12C554 -12 671 181 673 325C674 363 660 458 607 458C592 458 562 441 548 434L548 423C593 392 607 338 606 284C605 189 542 17 425 17C366 17 362 73 363 119C365 185 380 261 403 324L393 324C372 317 350 309 328 304C323 217 294 16 174 16C111 16 100 81 100 129C102 278 168 388 306 443L306 463C152 428 40 300 25 137C9 -29 213 -49 295 47C316 3 344 -12 394 -12Z" stroke="rgb(0,0,0)" stroke-opacity="1" stroke-width="8" fill="rgb(0,0,0)" fill-opacity="1"></path></g></g><g><g><g><g><g transform="matrix(1,0,0,1,283.01666259765625,115.333349609375)"><path transform="matrix(0.0119,0,0,-0.0119,0,0)" d="M16 23L16 -3C203 -3 203 0 239 0C275 0 275 -3 468 -3L468 82C353 77 307 81 122 77L304 270C401 373 431 428 431 503C431 618 353 689 226 689C154 689 105 669 56 619L39 483L68 483L81 529C97 587 133 612 200 612C286 612 341 558 341 473C341 398 299 324 186 204Z" stroke="rgb(0,0,0)" stroke-opacity="1" stroke-width="8" fill="rgb(0,0,0)" fill-opacity="1"></path></g></g></g></g></g></g></g><g><g><g><g transform="matrix(1,0,0,1,213.66668701171875,51.19999694824219)"><path transform="matrix(0.017,0,0,-0.017,0,0)" d="M-33 6L-28 -4C79 0 185 0 292 0C393 0 494 -1 594 -4L602 6C560 116 534 238 504 354C475 466 442 580 424 697L399 697C336 587 53 127 -33 6ZM482 37L50 37C148 215 249 389 356 564L363 564C408 391 449 215 482 37Z" stroke="rgb(0,0,0)" stroke-opacity="1" stroke-width="8" fill="rgb(0,0,0)" fill-opacity="1"></path></g></g></g></g><g><g><g><g transform="matrix(1,0,0,1,491,121.5333251953125)"><path transform="matrix(0.017,0,0,-0.017,0,0)" d="M394 -12C554 -12 671 181 673 325C674 363 660 458 607 458C592 458 562 441 548 434L548 423C593 392 607 338 606 284C605 189 542 17 425 17C366 17 362 73 363 119C365 185 380 261 403 324L393 324C372 317 350 309 328 304C323 217 294 16 174 16C111 16 100 81 100 129C102 278 168 388 306 443L306 463C152 428 40 300 25 137C9 -29 213 -49 295 47C316 3 344 -12 394 -12Z" stroke="rgb(0,0,0)" stroke-opacity="1" stroke-width="8" fill="rgb(0,0,0)" fill-opacity="1"></path></g></g><g><g><g><g><g transform="matrix(1,0,0,1,503.6666259765625,124.333349609375)"><path transform="matrix(0.0119,0,0,-0.0119,0,0)" d="M34 388L41 368L73 389C110 412 113 414 120 414C130 414 138 404 138 391C138 384 134 361 130 347L64 107C56 76 51 49 51 30C51 6 62 -9 81 -9C107 -9 143 12 241 85L231 103L205 86C176 67 153 56 144 56C137 56 131 66 131 76C131 86 133 95 138 116L215 420C219 437 221 448 221 456C221 473 212 482 196 482C174 482 137 461 62 408ZM228 712C199 712 170 679 170 645C170 620 185 604 209 604C240 604 264 633 264 671C264 695 249 712 228 712Z" stroke="rgb(0,0,0)" stroke-opacity="1" stroke-width="8" fill="rgb(0,0,0)" fill-opacity="1"></path></g></g></g></g></g><g><g transform="matrix(1,0,0,1,511.38330078125,121.5333251953125)"><path transform="matrix(0.017,0,0,-0.017,0,0)" d="M555 243L555 299L51 299L51 243Z" stroke="rgb(0,0,0)" stroke-opacity="1" stroke-width="8" fill="rgb(0,0,0)" fill-opacity="1"></path></g></g><g><g transform="matrix(1,0,0,1,525.066650390625,121.5333251953125)"><path transform="matrix(0.017,0,0,-0.017,0,0)" d="M394 -12C554 -12 671 181 673 325C674 363 660 458 607 458C592 458 562 441 548 434L548 423C593 392 607 338 606 284C605 189 542 17 425 17C366 17 362 73 363 119C365 185 380 261 403 324L393 324C372 317 350 309 328 304C323 217 294 16 174 16C111 16 100 81 100 129C102 278 168 388 306 443L306 463C152 428 40 300 25 137C9 -29 213 -49 295 47C316 3 344 -12 394 -12Z" stroke="rgb(0,0,0)" stroke-opacity="1" stroke-width="8" fill="rgb(0,0,0)" fill-opacity="1"></path></g></g><g><g><g><g><g transform="matrix(1,0,0,1,537.7333984375,124.333349609375)"><path transform="matrix(0.0119,0,0,-0.0119,0,0)" d="M275 482C208 482 55 419 55 259C55 182 100 136 177 136C185 136 196 136 207 137L166 99C150 84 139 66 139 52C139 42 146 31 160 19C91 -4 -37 -48 -37 -159C-37 -230 33 -276 142 -276C271 -276 384 -204 384 -121C384 -85 363 -49 320 -14L260 35C226 62 213 81 213 100C213 114 228 128 240 146C338 170 409 253 409 342C409 357 406 376 405 380C422 378 430 378 439 378C456 378 466 379 489 382L498 427L495 433C467 426 447 424 393 424C393 425 369 482 275 482ZM176 1L253 -58C299 -94 318 -121 318 -154C318 -206 249 -248 166 -248C84 -248 27 -206 27 -145C27 -43 137 -11 176 1ZM250 448C308 448 337 412 337 341C337 238 289 168 219 168C158 168 126 209 126 288C126 383 177 448 250 448Z" stroke="rgb(0,0,0)" stroke-opacity="1" stroke-width="8" fill="rgb(0,0,0)" fill-opacity="1"></path></g></g></g></g></g><g><g transform="matrix(1,0,0,1,549.7833251953125,121.5333251953125)"><path transform="matrix(0.017,0,0,-0.017,0,0)" d="M604 347L604 406L65 406L65 347ZM604 134L604 193L65 193L65 134Z" stroke="rgb(0,0,0)" stroke-opacity="1" stroke-width="8" fill="rgb(0,0,0)" fill-opacity="1"></path></g></g><g><g transform="matrix(1,0,0,1,566.2333984375,121.5333251953125)"><path transform="matrix(0.017,0,0,-0.017,0,0)" d="M216 6L221 -4C328 0 434 0 541 0C642 0 743 -1 843 -4L851 6C809 116 783 238 753 354C724 466 691 580 673 697L648 697C585 587 302 127 216 6ZM731 37L299 37C397 215 498 389 605 564L612 564C657 391 698 215 731 37Z" stroke="rgb(0,0,0)" stroke-opacity="1" stroke-width="8" fill="rgb(0,0,0)" fill-opacity="1"></path></g></g><g><g transform="matrix(1,0,0,1,585.566650390625,121.5333251953125)"><path transform="matrix(0.017,0,0,-0.017,0,0)" d="M604 241L604 300L364 300L364 538L305 538L305 300L65 300L65 241L305 241L305 0L364 0L364 241Z" stroke="rgb(0,0,0)" stroke-opacity="1" stroke-width="8" fill="rgb(0,0,0)" fill-opacity="1"></path></g></g><g><g transform="matrix(1,0,0,1,600.316650390625,121.5333251953125)"><path transform="matrix(0.017,0,0,-0.017,0,0)" d="M394 -12C554 -12 671 181 673 325C674 363 660 458 607 458C592 458 562 441 548 434L548 423C593 392 607 338 606 284C605 189 542 17 425 17C366 17 362 73 363 119C365 185 380 261 403 324L393 324C372 317 350 309 328 304C323 217 294 16 174 16C111 16 100 81 100 129C102 278 168 388 306 443L306 463C152 428 40 300 25 137C9 -29 213 -49 295 47C316 3 344 -12 394 -12Z" stroke="rgb(0,0,0)" stroke-opacity="1" stroke-width="8" fill="rgb(0,0,0)" fill-opacity="1"></path></g></g><g><g><g><g><g transform="matrix(1,0,0,1,612.9833984375,124.333349609375)"><path transform="matrix(0.0119,0,0,-0.0119,0,0)" d="M418 -3L418 27L366 30C311 33 301 44 301 96L301 700L60 598L67 548L217 614L217 96C217 44 206 33 152 30L96 27L96 -3C250 0 250 0 261 0C292 0 402 -3 418 -3Z" stroke="rgb(0,0,0)" stroke-opacity="1" stroke-width="8" fill="rgb(0,0,0)" fill-opacity="1"></path></g></g></g></g></g></g></g><g><g><g><g transform="matrix(1,0,0,1,491.0166015625,154.88333129882812)"><path transform="matrix(0.017,0,0,-0.017,0,0)" d="M394 -12C554 -12 671 181 673 325C674 363 660 458 607 458C592 458 562 441 548 434L548 423C593 392 607 338 606 284C605 189 542 17 425 17C366 17 362 73 363 119C365 185 380 261 403 324L393 324C372 317 350 309 328 304C323 217 294 16 174 16C111 16 100 81 100 129C102 278 168 388 306 443L306 463C152 428 40 300 25 137C9 -29 213 -49 295 47C316 3 344 -12 394 -12Z" stroke="rgb(0,0,0)" stroke-opacity="1" stroke-width="8" fill="rgb(0,0,0)" fill-opacity="1"></path></g></g><g><g><g><g><g transform="matrix(1,0,0,1,503.683349609375,157.6833251953125)"><path transform="matrix(0.0119,0,0,-0.0119,0,0)" d="M34 388L41 368L73 389C110 412 113 414 120 414C130 414 138 404 138 391C138 384 134 361 130 347L64 107C56 76 51 49 51 30C51 6 62 -9 81 -9C107 -9 143 12 241 85L231 103L205 86C176 67 153 56 144 56C137 56 131 66 131 76C131 86 133 95 138 116L215 420C219 437 221 448 221 456C221 473 212 482 196 482C174 482 137 461 62 408ZM228 712C199 712 170 679 170 645C170 620 185 604 209 604C240 604 264 633 264 671C264 695 249 712 228 712Z" stroke="rgb(0,0,0)" stroke-opacity="1" stroke-width="8" fill="rgb(0,0,0)" fill-opacity="1"></path></g></g></g></g></g><g><g transform="matrix(1,0,0,1,511.4000244140625,154.88333129882812)"><path transform="matrix(0.017,0,0,-0.017,0,0)" d="M555 243L555 299L51 299L51 243Z" stroke="rgb(0,0,0)" stroke-opacity="1" stroke-width="8" fill="rgb(0,0,0)" fill-opacity="1"></path></g></g><g><g transform="matrix(1,0,0,1,525.0833740234375,154.88333129882812)"><path transform="matrix(0.017,0,0,-0.017,0,0)" d="M394 -12C554 -12 671 181 673 325C674 363 660 458 607 458C592 458 562 441 548 434L548 423C593 392 607 338 606 284C605 189 542 17 425 17C366 17 362 73 363 119C365 185 380 261 403 324L393 324C372 317 350 309 328 304C323 217 294 16 174 16C111 16 100 81 100 129C102 278 168 388 306 443L306 463C152 428 40 300 25 137C9 -29 213 -49 295 47C316 3 344 -12 394 -12Z" stroke="rgb(0,0,0)" stroke-opacity="1" stroke-width="8" fill="rgb(0,0,0)" fill-opacity="1"></path></g></g><g><g><g><g><g transform="matrix(1,0,0,1,537.75,157.6833251953125)"><path transform="matrix(0.0119,0,0,-0.0119,0,0)" d="M328 111L304 94C251 56 203 36 167 36C120 36 91 73 91 133C91 158 94 185 99 214C116 218 225 248 250 259C335 296 374 342 374 404C374 451 340 482 290 482C222 496 112 423 75 349C45 299 15 180 15 113C15 35 59 -11 131 -11C188 -11 244 17 336 92ZM113 274C130 343 150 386 179 412C197 428 228 440 252 440C281 440 300 420 300 388C300 344 265 297 213 272C185 258 149 247 104 237Z" stroke="rgb(0,0,0)" stroke-opacity="1" stroke-width="8" fill="rgb(0,0,0)" fill-opacity="1"></path></g></g></g></g></g><g><g transform="matrix(1,0,0,1,543.38330078125,154.88333129882812)"><path transform="matrix(0.017,0,0,-0.017,0,0)" d="" stroke="rgb(0,0,0)" stroke-opacity="1" stroke-width="8" fill="rgb(0,0,0)" fill-opacity="1"></path></g></g><g><g transform="matrix(1,0,0,1,552.7166748046875,154.88333129882812)"><path transform="matrix(0.017,0,0,-0.017,0,0)" d="M604 347L604 406L65 406L65 347ZM604 134L604 193L65 193L65 134Z" stroke="rgb(0,0,0)" stroke-opacity="1" stroke-width="8" fill="rgb(0,0,0)" fill-opacity="1"></path></g></g><g><g transform="matrix(1,0,0,1,569.1666259765625,154.88333129882812)"><path transform="matrix(0.017,0,0,-0.017,0,0)" d="M216 6L221 -4C328 0 434 0 541 0C642 0 743 -1 843 -4L851 6C809 116 783 238 753 354C724 466 691 580 673 697L648 697C585 587 302 127 216 6ZM731 37L299 37C397 215 498 389 605 564L612 564C657 391 698 215 731 37Z" stroke="rgb(0,0,0)" stroke-opacity="1" stroke-width="8" fill="rgb(0,0,0)" fill-opacity="1"></path></g></g><g><g transform="matrix(1,0,0,1,588.5,154.88333129882812)"><path transform="matrix(0.017,0,0,-0.017,0,0)" d="M604 241L604 300L364 300L364 538L305 538L305 300L65 300L65 241L305 241L305 0L364 0L364 241Z" stroke="rgb(0,0,0)" stroke-opacity="1" stroke-width="8" fill="rgb(0,0,0)" fill-opacity="1"></path></g></g><g><g transform="matrix(1,0,0,1,603.25,154.88333129882812)"><path transform="matrix(0.017,0,0,-0.017,0,0)" d="M394 -12C554 -12 671 181 673 325C674 363 660 458 607 458C592 458 562 441 548 434L548 423C593 392 607 338 606 284C605 189 542 17 425 17C366 17 362 73 363 119C365 185 380 261 403 324L393 324C372 317 350 309 328 304C323 217 294 16 174 16C111 16 100 81 100 129C102 278 168 388 306 443L306 463C152 428 40 300 25 137C9 -29 213 -49 295 47C316 3 344 -12 394 -12Z" stroke="rgb(0,0,0)" stroke-opacity="1" stroke-width="8" fill="rgb(0,0,0)" fill-opacity="1"></path></g></g><g><g><g><g><g transform="matrix(1,0,0,1,615.9166259765625,157.6833251953125)"><path transform="matrix(0.0119,0,0,-0.0119,0,0)" d="M16 23L16 -3C203 -3 203 0 239 0C275 0 275 -3 468 -3L468 82C353 77 307 81 122 77L304 270C401 373 431 428 431 503C431 618 353 689 226 689C154 689 105 669 56 619L39 483L68 483L81 529C97 587 133 612 200 612C286 612 341 558 341 473C341 398 299 324 186 204Z" stroke="rgb(0,0,0)" stroke-opacity="1" stroke-width="8" fill="rgb(0,0,0)" fill-opacity="1"></path></g></g></g></g></g></g></g></svg>
</svg>
